<?xml version="1.0" encoding="utf-8"?>
<!-- Generator: Adobe Illustrator 19.2.1, SVG Export Plug-In . SVG Version: 6.00 Build 0)  -->
<svg version="1.1" id="Layer_1" xmlns="http://www.w3.org/2000/svg" xmlns:xlink="http://www.w3.org/1999/xlink" x="0px" y="0px"
	 viewBox="0 0 416.7 360" style="enable-background:new 0 0 416.7 360;" xml:space="preserve">
<style type="text/css">
	.st0{opacity:0.55;fill:#00A3BB;}
	.st1{opacity:0.55;fill:#F26222;}
	.st2{opacity:0.55;}
	.st3{fill:#EF3A24;}
	.st4{fill:#EFE929;}
	.st5{fill:#72BF44;}
	.st6{fill:#020202;}
</style>
<g>
	<path class="st0" d="M397.8,290c-45.6,69.6-187.6,17.9-247.1-21.1S-6.7,118.4,38.9,48.8S206.8,44.1,266.2,83S443.4,220.4,397.8,290
		z"/>
	<path class="st1" d="M373.6,276.6c-36,54.9-155.7,9-206.3-24.1S31.9,126.4,67.9,71.5s139.7,1.1,190.3,34.2S409.6,221.7,373.6,276.6
		z"/>
	<g class="st2">
		<path class="st3" d="M250.9,134.4c89.1,67.2,125,135.2,83,147.3c-27.6,8-87.2-1.2-155.6-53.6S68.5,114.7,86,91.8
			c9.9-12.9,63.6-26.2,97.4-12.3C209.1,90,214.5,107,250.9,134.4z"/>
		<path class="st4" d="M247.1,139.3c79.3,59.8,111.3,120.3,73.9,131.2c-24.6,7.1-77.6-1.1-138.5-47.7s-97.7-101-82.2-121.3
			c8.8-11.5,56.7-23.3,86.7-11C210,99.8,214.8,114.9,247.1,139.3z"/>
		<path class="st5" d="M241.1,147.2c63.6,48,89.2,96.4,59.2,105.1c-19.7,5.7-62.2-0.8-111-38.2s-78.3-80.9-65.8-97.2
			c7.1-9.2,45.4-18.7,69.4-8.8C211.3,115.5,215.2,127.6,241.1,147.2z"/>
	</g>
	<g>
		<path class="st6" d="M58.7,351c-8.7,0-16.6-0.9-23.7-2.7c-7.1-1.8-14.2-4.4-21.3-8l10.6-25c5.2,2.7,10.3,4.7,15.3,5.9
			c5,1.2,11,1.8,17.8,1.8c9.5,0,17.6-2.9,24.1-8.6c6.5-5.7,12.9-16.1,19.2-31.1L4.7,72.8h34.8l76.9,176.3l67.9-176.3h33.5L129,291.2
			c-9,21.8-19,37.2-30.1,46.2C87.9,346.5,74.5,351,58.7,351z"/>
		<path class="st6" d="M338.4,288c-8.5,0-16.4-1.1-23.7-3.3c-7.4-2.2-13.7-5.7-19-10.4c-5.3-4.8-9.5-11-12.5-18.6
			c-3-7.6-4.5-16.8-4.5-27.4V100.6h-29.5V72.8h29.5V9h31.5v63.8h67.1v27.8h-67.1v123.2c0,13.1,3.3,22.2,9.8,27.3
			c6.5,5.2,15.1,7.8,25.8,7.8c5.4,0,10.6-0.5,15.3-1.5c4.8-1,9.9-2.8,15.3-5.4v27c-5.5,3-11.2,5.3-17.4,6.7
			C353,287.2,346.1,288,338.4,288z"/>
	</g>
</g>
</svg>
